<svg width="8" height="10" viewBox="0 0 8 10" fill="none" xmlns="http://www.w3.org/2000/svg">
<path d="M7.34981 9.75717L5.72178 6.77517C5.56614 6.49009 5.16096 6.47738 4.98642 6.75129C4.47776 7.54956 3.78945 8.60811 3.46346 9.03462C3.0418 9.58628 2.58501 9.67823 2.40932 9.65524C1.92617 9.63226 0.828119 9.54491 0.301049 9.37941C-0.226022 9.21391 0.0480926 8.87522 0.301049 8.75878C0.60298 8.61979 1.35519 8.37259 1.88226 8.20712C2.40933 8.04165 2.80463 7.40262 2.9364 7.10379L4.91292 3.17313C5.41803 2.09278 6.61272 -0.0541236 7.35062 0.00104305C8.08852 0.0562097 7.87769 0.897501 7.68004 1.31125L6.62344 3.71822C6.58252 3.81144 6.5762 3.91554 6.60602 4.01288C6.99538 5.28398 7.74104 7.72502 7.94357 8.41396C8.10762 8.972 7.8834 9.48272 7.66202 9.79018C7.58042 9.9035 7.41673 9.87974 7.34981 9.75717Z" fill="white"/>
</svg>
